<svg width="300" height="84" viewBox="0 0 300 84" fill="none" xmlns="http://www.w3.org/2000/svg">
<g clip-path="url(#clip0_301_18)">
<path d="M6 16.8125C8.4375 15.5625 10.7188 14.6562 12.8438 14.0938C15.0312 13.4688 17.1875 13.0625 19.3125 12.875C21.5 12.625 23.6875 12.5 25.875 12.5C28.125 12.5 30.5625 12.5 33.1875 12.5C33.6875 12.5 34.5312 12.5312 35.7188 12.5938C36.9688 12.5938 38.2812 12.5938 39.6562 12.5938C41.0938 12.5938 42.4062 12.5938 43.5938 12.5938C44.7812 12.5938 45.625 12.5938 46.125 12.5938C46.8125 12.8438 47.3438 13.2812 47.7188 13.9062C48.0938 14.5312 48.375 15.1875 48.5625 15.875C48.75 16.5625 48.875 17.2812 48.9375 18.0312C49 18.7188 49.0312 19.25 49.0312 19.625H18.0938V39.7812H51.6562C51.6562 41.9062 51 43.5938 49.6875 44.8438C48.375 46.0312 46.7188 46.9688 44.7188 47.6562C42.7812 48.3438 40.5938 48.8125 38.1562 49.0625C35.7188 49.25 33.4062 49.3438 31.2188 49.3438C29.0312 49.2812 27.0938 49.1875 25.4062 49.0625C23.7188 48.9375 22.5938 48.875 22.0312 48.875V50.8438C22.0312 53.4688 22.6562 55.9688 23.9062 58.3438C25.1562 60.6562 26.5312 62.9062 28.0312 65.0938C29.5938 67.2812 31 69.4375 32.25 71.5625C33.5625 73.6875 34.2188 75.8438 34.2188 78.0312C34.2188 79.4062 33.9375 80.625 33.375 81.6875C32.8125 82.6875 31.7812 83.1875 30.2812 83.1875C28.7188 83.1875 27.1562 82.375 25.5938 80.75C24.0938 79.125 22.625 76.9688 21.1875 74.2812C19.75 71.5312 18.375 68.4062 17.0625 64.9062C15.8125 61.3438 14.5938 57.6562 13.4062 53.8438C12.2812 49.9688 11.25 46.1562 10.3125 42.4062C9.4375 38.5938 8.6875 35.0625 8.0625 31.8125C7.4375 28.5 6.9375 25.5938 6.5625 23.0938C6.1875 20.5938 6 18.7812 6 17.6562V16.8125ZM47.9475 21.5C47.9475 20.25 48.3538 19.4375 49.1663 19.0625C50.0413 18.6875 50.9788 18.5 51.9788 18.5C52.1663 18.5 52.51 18.5312 53.01 18.5938C53.5725 18.6562 53.9163 18.6875 54.0413 18.6875C54.2288 20.625 54.4163 22.9688 54.6038 25.7188C54.7913 28.4062 55.01 31.3438 55.26 34.5312C55.51 37.6562 55.8225 40.9062 56.1975 44.2812C56.5725 47.6562 57.1038 50.9688 57.7913 54.2188C58.4788 57.4062 59.3225 60.4688 60.3225 63.4062C61.3225 66.2812 62.5413 68.7812 63.9788 70.9062C64.2913 71.4688 64.5725 71.9062 64.8225 72.2188C65.135 72.4688 65.4163 72.6875 65.6663 72.875C65.9788 73 66.3225 73.0938 66.6975 73.1562C67.0725 73.1562 67.5413 73.1562 68.1038 73.1562C70.6663 73.1562 73.1038 72.7188 75.4163 71.8438C77.7913 70.9688 80.135 70 82.4475 68.9375C84.76 67.875 87.1038 66.9062 89.4788 66.0312C91.8538 65.1562 94.3538 64.7188 96.9788 64.7188C97.5413 64.7188 98.26 64.7188 99.135 64.7188C100.01 64.6562 100.823 64.6875 101.573 64.8125C102.323 64.9375 102.979 65.25 103.541 65.75C104.104 66.25 104.385 67 104.385 68C104.385 68.9375 103.541 69.9688 101.854 71.0938C100.166 72.1562 98.01 73.25 95.385 74.375C92.76 75.4375 89.885 76.5 86.76 77.5625C83.6975 78.625 80.7288 79.5625 77.8538 80.375C75.0413 81.1875 72.5413 81.8438 70.3538 82.3438C68.1663 82.7812 66.7288 83 66.0413 83C63.7913 83 61.7913 82.25 60.0413 80.75C58.3538 79.1875 56.8538 77.125 55.5413 74.5625C54.2913 71.9375 53.2288 68.9688 52.3538 65.6562C51.4788 62.2812 50.76 58.7812 50.1975 55.1562C49.635 51.5312 49.1975 47.9375 48.885 44.375C48.5725 40.8125 48.3538 37.5 48.2288 34.4375C48.1038 31.375 48.01 28.6875 47.9475 26.375C47.9475 24.0625 47.9475 22.4375 47.9475 21.5ZM106.02 8.65625C105.708 8.65625 105.239 8.59375 104.614 8.46875C104.051 8.28125 103.458 8.09375 102.833 7.90625C102.208 7.65625 101.614 7.4375 101.051 7.25C100.489 7 100.114 6.8125 99.9263 6.6875C99.8638 6.5625 99.8325 6.4375 99.8325 6.3125C99.77 6.1875 99.7388 6.03125 99.7388 5.84375C99.7388 4.96875 100.083 4.21875 100.77 3.59375C101.458 2.96875 102.239 2.46875 103.114 2.09375C104.051 1.65625 104.958 1.34375 105.833 1.15625C106.708 0.90625 107.395 0.75 107.895 0.6875H109.02H109.958C111.458 0.8125 113.364 1 115.676 1.25C117.989 1.5 120.426 1.78125 122.989 2.09375C125.614 2.34375 128.239 2.625 130.864 2.9375C133.551 3.1875 135.958 3.46875 138.083 3.78125C140.27 4.03125 142.083 4.25 143.52 4.4375C145.02 4.5625 145.895 4.625 146.145 4.625C146.645 4.6875 147.27 4.8125 148.02 5C148.833 5.125 149.645 5.375 150.458 5.75C151.27 6.0625 152.02 6.46875 152.708 6.96875C153.395 7.40625 153.895 7.96875 154.208 8.65625C153.708 9.65625 153.27 10.4375 152.895 11C152.52 11.5 152.114 11.9062 151.676 12.2188C151.239 12.4688 150.77 12.5938 150.27 12.5938C149.833 12.5938 149.27 12.5938 148.583 12.5938C145.958 12.5938 143.301 12.5 140.614 12.3125C137.989 12.125 135.364 11.9375 132.739 11.75C130.114 11.5625 127.458 11.375 124.77 11.1875C122.145 11 119.489 10.9062 116.801 10.9062C116.801 12.0312 116.645 13.7188 116.333 15.9688C116.083 18.2188 115.864 20.5938 115.676 23.0938C115.551 25.5938 115.614 28.0938 115.864 30.5938C116.176 33.0312 116.895 35.0938 118.02 36.7812C120.208 35.4688 122.489 34.7812 124.864 34.7188C127.239 34.6562 129.645 34.625 132.083 34.625C133.145 34.625 134.489 34.625 136.114 34.625C137.739 34.625 139.301 34.8125 140.801 35.1875C142.364 35.5625 143.676 36.1875 144.739 37.0625C145.801 37.9375 146.333 39.25 146.333 41C146.333 42.25 146.083 43.1875 145.583 43.8125C145.083 44.4375 143.926 44.75 142.114 44.75C141.926 44.75 141.52 44.6562 140.895 44.4688C140.333 44.2812 139.708 44.0625 139.02 43.8125C138.395 43.5625 137.801 43.3438 137.239 43.1562C136.676 42.9688 136.301 42.875 136.114 42.875C136.051 42.875 135.801 42.875 135.364 42.875C134.989 42.8125 134.52 42.7812 133.958 42.7812C133.395 42.7812 132.833 42.7812 132.27 42.7812C131.77 42.7188 131.364 42.6875 131.051 42.6875C129.614 42.6875 128.208 42.7812 126.833 42.9688C125.52 43.1562 124.364 43.5312 123.364 44.0938C122.364 44.6562 121.551 45.4688 120.926 46.5312C120.364 47.5938 120.083 48.9688 120.083 50.6562C120.083 51.2188 120.145 52.1875 120.27 53.5625C120.395 54.9375 120.551 56.4688 120.739 58.1562C120.989 59.7812 121.301 61.4688 121.676 63.2188C122.051 64.9688 122.551 66.5938 123.176 68.0938C123.801 69.5312 124.489 70.75 125.239 71.75C126.051 72.6875 127.02 73.1562 128.145 73.1562C128.27 73.1562 128.583 73.125 129.083 73.0625C129.583 73 129.895 72.9688 130.02 72.9688C132.145 71.5312 134.27 69.9688 136.395 68.2812C138.583 66.5938 140.833 65.0312 143.145 63.5938C145.458 62.0938 147.864 60.8438 150.364 59.8438C152.864 58.7812 155.458 58.25 158.145 58.25V62.8438C158.145 63.0938 157.52 63.7812 156.27 64.9062C155.083 66.0312 153.489 67.3438 151.489 68.8438C149.551 70.3438 147.364 71.9375 144.926 73.625C142.489 75.3125 140.051 76.875 137.614 78.3125C135.176 79.6875 132.833 80.8438 130.583 81.7812C128.395 82.7188 126.551 83.1875 125.051 83.1875C122.926 83.1875 121.02 82.25 119.333 80.375C117.708 78.4375 116.239 75.9062 114.926 72.7812C113.614 69.5938 112.52 65.9375 111.645 61.8125C110.77 57.6875 109.989 53.4375 109.301 49.0625C108.676 44.6875 108.145 40.3438 107.708 36.0312C107.333 31.6562 107.02 27.625 106.77 23.9375C106.52 20.25 106.333 17.0625 106.208 14.375C106.145 11.625 106.083 9.71875 106.02 8.65625ZM157.811 42.875C157.811 42.125 157.811 40.9062 157.811 39.2188C157.874 37.4688 157.905 35.6562 157.905 33.7812C157.905 31.8438 157.905 30.0312 157.905 28.3438C157.967 26.6562 157.999 25.4688 157.999 24.7812C158.061 24.3438 158.217 23.6875 158.467 22.8125C158.717 21.875 158.999 20.9688 159.311 20.0938C159.686 19.2188 160.155 18.4688 160.717 17.8438C161.342 17.1562 162.092 16.8125 162.967 16.8125C165.03 16.8125 166.967 17.375 168.78 18.5C170.592 19.625 172.342 21.125 174.03 23C175.717 24.8125 177.311 26.8438 178.811 29.0938C180.374 31.3438 181.905 33.5938 183.405 35.8438C184.905 38.0312 186.374 40.125 187.811 42.125C189.249 44.0625 190.686 45.625 192.124 46.8125C193.686 46.125 194.905 44.875 195.78 43.0625C196.655 41.1875 197.374 39.0625 197.936 36.6875C198.499 34.25 198.999 31.75 199.436 29.1875C199.936 26.5625 200.592 24.1562 201.405 21.9688C202.217 19.7812 203.28 18 204.592 16.625C205.967 15.1875 207.842 14.4688 210.217 14.4688C213.03 14.4688 215.561 15.5625 217.811 17.75C220.124 19.9375 222.186 22.7188 223.999 26.0938C225.811 29.4688 227.342 33.2188 228.592 37.3438C229.905 41.4688 230.999 45.4375 231.874 49.25C232.749 53.0625 233.405 56.5 233.842 59.5625C234.28 62.625 234.499 64.8125 234.499 66.125C234.499 66.6875 234.467 67.3125 234.405 68C234.342 68.625 234.186 69.2188 233.936 69.7812C233.686 70.2812 233.28 70.6875 232.717 71C232.155 71.25 231.342 71.2188 230.28 70.9062C229.967 70.8438 229.592 70.6875 229.155 70.4375C228.78 70.125 228.374 69.75 227.936 69.3125C227.499 68.875 227.124 68.4688 226.811 68.0938C226.499 67.6562 226.342 67.2812 226.342 66.9688C225.78 63.9062 225.155 60.5 224.467 56.75C223.78 53 222.905 49.2188 221.842 45.4062C220.842 41.5312 219.561 37.7812 217.999 34.1562C216.436 30.5312 214.499 27.4062 212.186 24.7812C210.374 25.7812 208.936 27.3125 207.874 29.375C206.874 31.375 206.03 33.5938 205.342 36.0312C204.655 38.4062 204.03 40.8438 203.467 43.3438C202.905 45.8438 202.155 48.125 201.217 50.1875C200.28 52.1875 199.092 53.8438 197.655 55.1562C196.217 56.4688 194.28 57.125 191.842 57.125C190.155 57.125 188.499 56.5938 186.874 55.5312C185.311 54.4062 183.78 52.9688 182.28 51.2188C180.78 49.4062 179.311 47.4375 177.874 45.3125C176.499 43.125 175.124 41 173.749 38.9375C172.436 36.8125 171.124 34.8438 169.811 33.0312C168.561 31.2188 167.28 29.7812 165.967 28.7188C165.467 30.6562 165.061 32.375 164.749 33.875C164.499 35.3125 164.28 36.7188 164.092 38.0938C163.967 39.4688 163.874 40.875 163.811 42.3125C163.811 43.75 163.811 45.3438 163.811 47.0938C163.811 49.7188 164.03 52.3438 164.467 54.9688C164.905 57.5312 165.374 60.0938 165.874 62.6562C166.374 65.2188 166.842 67.8125 167.28 70.4375C167.78 73 168.03 75.5938 168.03 78.2188V78.9688C167.905 79.1562 167.655 79.4688 167.28 79.9062C166.905 80.2812 166.499 80.6875 166.061 81.125C165.686 81.5625 165.28 81.9688 164.842 82.3438C164.405 82.6562 164.092 82.875 163.905 83C163.842 83.0625 163.717 83.0938 163.53 83.0938C163.342 83.1562 163.155 83.1875 162.967 83.1875C162.842 83.1875 162.686 83.1562 162.499 83.0938C162.311 83.0312 162.155 83 162.03 83C161.592 79.375 161.124 75.9375 160.624 72.6875C160.124 69.4375 159.655 66.2188 159.217 63.0312C158.842 59.8438 158.499 56.625 158.186 53.375C157.936 50.125 157.811 46.625 157.811 42.875ZM232.009 56.9375C232.009 53.75 232.415 50.5312 233.228 47.2812C234.103 43.9688 235.29 40.8125 236.79 37.8125C238.353 34.8125 240.228 32.0312 242.415 29.4688C244.603 26.8438 247.009 24.5938 249.634 22.7188C252.321 20.7812 255.228 19.2812 258.353 18.2188C261.478 17.0938 264.759 16.5312 268.196 16.5312C271.634 16.5312 274.603 17.2188 277.103 18.5938C279.665 19.9062 281.79 21.6875 283.478 23.9375C285.165 26.1875 286.415 28.7812 287.228 31.7188C288.04 34.5938 288.446 37.5312 288.446 40.5312C288.446 45.7812 287.665 50.9688 286.103 56.0938C284.54 61.1562 282.228 65.7188 279.165 69.7812C276.103 73.7812 272.29 77.0312 267.728 79.5312C263.228 81.9688 258.04 83.1875 252.165 83.1875C248.665 83.1875 245.634 82.4062 243.071 80.8438C240.571 79.2188 238.478 77.1562 236.79 74.6562C235.165 72.0938 233.946 69.2812 233.134 66.2188C232.384 63.0938 232.009 60 232.009 56.9375ZM239.978 59C239.978 60.6875 240.259 62.4688 240.821 64.3438C241.384 66.2188 242.165 67.9375 243.165 69.5C244.165 71.0625 245.415 72.375 246.915 73.4375C248.478 74.5 250.228 75.0312 252.165 75.0312C256.353 75.0312 260.165 74.0938 263.603 72.2188C267.04 70.2812 270.009 67.8125 272.509 64.8125C275.009 61.75 276.946 58.3438 278.321 54.5938C279.696 50.8438 280.384 47.125 280.384 43.4375C280.384 41.3125 280.321 39.125 280.196 36.875C280.071 34.625 279.665 32.5938 278.978 30.7812C278.29 28.9062 277.196 27.4062 275.696 26.2812C274.259 25.0938 272.165 24.5 269.415 24.5C268.54 24.5 267.353 24.5312 265.853 24.5938C264.415 24.6562 262.978 24.8438 261.54 25.1562C260.103 25.4062 258.821 25.8125 257.696 26.375C256.634 26.9375 256.103 27.7188 256.103 28.7188C256.103 28.8438 256.196 29.125 256.384 29.5625C256.634 29.9375 256.884 30.3438 257.134 30.7812C257.384 31.2188 257.603 31.6562 257.79 32.0938C257.978 32.4688 258.071 32.7188 258.071 32.8438C258.071 32.9688 257.821 33.3125 257.321 33.875C256.821 34.375 256.415 34.6875 256.103 34.8125C252.978 35.625 250.353 36.6562 248.228 37.9062C246.165 39.0938 244.509 40.6562 243.259 42.5938C242.071 44.5312 241.228 46.8438 240.728 49.5312C240.228 52.2188 239.978 55.375 239.978 59Z" fill="white"/>
<path d="M287.5 64L299.191 81.25H275.809L287.5 64Z" fill="#FF09E6"/>
<path d="M12.4999 64L24.1912 81.25H0.808594L12.4999 64Z" fill="#FF09E6"/>
</g>
<defs>
<clipPath id="clip0_301_18">
<rect width="300" height="84" fill="white"/>
</clipPath>
</defs>
</svg>
