<svg width="296" height="72" viewBox="0 0 296 72" fill="none" xmlns="http://www.w3.org/2000/svg">
<g clip-path="url(#clip0_302_19)">
<path d="M13 4.8125C15.4375 3.5625 17.7188 2.65625 19.8438 2.09375C22.0312 1.46875 24.1875 1.0625 26.3125 0.875C28.5 0.625 30.6875 0.5 32.875 0.5C35.125 0.5 37.5625 0.5 40.1875 0.5C40.6875 0.5 41.5312 0.53125 42.7188 0.59375C43.9688 0.59375 45.2812 0.59375 46.6562 0.59375C48.0938 0.59375 49.4062 0.59375 50.5938 0.59375C51.7812 0.59375 52.625 0.59375 53.125 0.59375C53.8125 0.84375 54.3438 1.28125 54.7188 1.90625C55.0938 2.53125 55.375 3.1875 55.5625 3.875C55.75 4.5625 55.875 5.28125 55.9375 6.03125C56 6.71875 56.0312 7.25 56.0312 7.625H25.0938V27.7812H58.6562C58.6562 29.9062 58 31.5938 56.6875 32.8438C55.375 34.0312 53.7188 34.9688 51.7188 35.6562C49.7812 36.3438 47.5938 36.8125 45.1562 37.0625C42.7188 37.25 40.4062 37.3438 38.2188 37.3438C36.0312 37.2812 34.0938 37.1875 32.4062 37.0625C30.7188 36.9375 29.5938 36.875 29.0312 36.875V38.8438C29.0312 41.4688 29.6562 43.9688 30.9062 46.3438C32.1562 48.6562 33.5312 50.9062 35.0312 53.0938C36.5938 55.2812 38 57.4375 39.25 59.5625C40.5625 61.6875 41.2188 63.8438 41.2188 66.0312C41.2188 67.4062 40.9375 68.625 40.375 69.6875C39.8125 70.6875 38.7812 71.1875 37.2812 71.1875C35.7188 71.1875 34.1562 70.375 32.5938 68.75C31.0938 67.125 29.625 64.9688 28.1875 62.2812C26.75 59.5312 25.375 56.4062 24.0625 52.9062C22.8125 49.3438 21.5938 45.6562 20.4062 41.8438C19.2812 37.9688 18.25 34.1562 17.3125 30.4062C16.4375 26.5938 15.6875 23.0625 15.0625 19.8125C14.4375 16.5 13.9375 13.5938 13.5625 11.0938C13.1875 8.59375 13 6.78125 13 5.65625V4.8125ZM54.9475 9.5C54.9475 8.25 55.3538 7.4375 56.1663 7.0625C57.0413 6.6875 57.9788 6.5 58.9788 6.5C59.1663 6.5 59.51 6.53125 60.01 6.59375C60.5725 6.65625 60.9163 6.6875 61.0413 6.6875C61.2288 8.625 61.4163 10.9688 61.6038 13.7188C61.7913 16.4062 62.01 19.3438 62.26 22.5312C62.51 25.6562 62.8225 28.9062 63.1975 32.2812C63.5725 35.6562 64.1038 38.9688 64.7913 42.2188C65.4788 45.4062 66.3225 48.4688 67.3225 51.4062C68.3225 54.2812 69.5413 56.7812 70.9788 58.9062C71.2913 59.4688 71.5725 59.9062 71.8225 60.2188C72.135 60.4688 72.4163 60.6875 72.6663 60.875C72.9788 61 73.3225 61.0938 73.6975 61.1562C74.0725 61.1562 74.5413 61.1562 75.1038 61.1562C77.6663 61.1562 80.1038 60.7188 82.4163 59.8438C84.7913 58.9688 87.135 58 89.4475 56.9375C91.76 55.875 94.1038 54.9062 96.4788 54.0312C98.8538 53.1562 101.354 52.7188 103.979 52.7188C104.541 52.7188 105.26 52.7188 106.135 52.7188C107.01 52.6562 107.823 52.6875 108.573 52.8125C109.323 52.9375 109.979 53.25 110.541 53.75C111.104 54.25 111.385 55 111.385 56C111.385 56.9375 110.541 57.9688 108.854 59.0938C107.166 60.1562 105.01 61.25 102.385 62.375C99.76 63.4375 96.885 64.5 93.76 65.5625C90.6975 66.625 87.7288 67.5625 84.8538 68.375C82.0413 69.1875 79.5413 69.8438 77.3538 70.3438C75.1663 70.7812 73.7288 71 73.0413 71C70.7913 71 68.7913 70.25 67.0413 68.75C65.3538 67.1875 63.8538 65.125 62.5413 62.5625C61.2913 59.9375 60.2288 56.9688 59.3538 53.6562C58.4788 50.2812 57.76 46.7812 57.1975 43.1562C56.635 39.5312 56.1975 35.9375 55.885 32.375C55.5725 28.8125 55.3538 25.5 55.2288 22.4375C55.1038 19.375 55.01 16.6875 54.9475 14.375C54.9475 12.0625 54.9475 10.4375 54.9475 9.5ZM108.801 44.9375C108.801 41.5625 109.208 38.1875 110.02 34.8125C110.833 31.4375 112.114 28.4062 113.864 25.7188C115.676 23.0312 117.989 20.8438 120.801 19.1562C123.676 17.4688 127.145 16.625 131.208 16.625C133.52 16.625 135.551 17.0625 137.301 17.9375C139.051 18.75 140.52 19.8438 141.708 21.2188C142.895 22.5938 143.77 24.2188 144.333 26.0938C144.958 27.9062 145.27 29.8125 145.27 31.8125C145.27 35 144.52 38.0938 143.02 41.0938C141.583 44.0938 139.614 46.75 137.114 49.0625C134.676 51.3125 131.864 53.0312 128.676 54.2188C125.489 55.3438 122.239 55.5938 118.926 54.9688C118.989 56.7812 119.583 58.25 120.708 59.375C121.895 60.4375 123.301 61.25 124.926 61.8125C126.551 62.375 128.239 62.75 129.989 62.9375C131.739 63.0625 133.301 63.125 134.676 63.125C136.114 63.125 137.458 63 138.708 62.75C139.958 62.5 141.208 62.2188 142.458 61.9062C143.708 61.5938 144.958 61.3125 146.208 61.0625C147.52 60.8125 148.895 60.6875 150.333 60.6875C150.895 60.6875 151.458 60.7188 152.02 60.7812C152.583 60.8438 153.114 61 153.614 61.25C154.114 61.4375 154.52 61.7812 154.833 62.2812C155.145 62.7188 155.301 63.2812 155.301 63.9688C155.301 65.1562 154.864 66.1562 153.989 66.9688C153.114 67.7188 151.989 68.375 150.614 68.9375C149.301 69.5 147.833 69.9375 146.208 70.25C144.583 70.5 142.989 70.7188 141.426 70.9062C139.926 71.0312 138.52 71.0938 137.208 71.0938C135.958 71.1562 135.02 71.1875 134.395 71.1875C130.395 71.1875 126.801 70.5625 123.614 69.3125C120.426 68 117.739 66.2188 115.551 63.9688C113.364 61.6562 111.676 58.9062 110.489 55.7188C109.364 52.4688 108.801 48.875 108.801 44.9375ZM118.739 38.8438C118.739 41.0312 119.02 42.625 119.583 43.625C120.208 44.625 121.676 45.125 123.989 45.125C125.614 45.125 127.208 44.8438 128.77 44.2812C130.333 43.6562 131.739 42.8125 132.989 41.75C134.301 40.6875 135.333 39.4375 136.083 38C136.833 36.5625 137.208 35 137.208 33.3125C137.208 32.375 137.114 31.4062 136.926 30.4062C136.801 29.4062 136.489 28.5 135.989 27.6875C135.489 26.8125 134.833 26.125 134.02 25.625C133.27 25.0625 132.27 24.7812 131.02 24.7812C129.145 24.7812 127.426 25.2188 125.864 26.0938C124.364 26.9062 123.083 28 122.02 29.375C120.958 30.6875 120.145 32.1875 119.583 33.875C119.02 35.5 118.739 37.1562 118.739 38.8438ZM154.874 30.875C154.874 30.125 154.874 28.9062 154.874 27.2188C154.936 25.4688 154.967 23.6562 154.967 21.7812C154.967 19.8438 154.967 18.0312 154.967 16.3438C155.03 14.6562 155.061 13.4688 155.061 12.7812C155.124 12.3438 155.28 11.6875 155.53 10.8125C155.78 9.875 156.061 8.96875 156.374 8.09375C156.749 7.21875 157.217 6.46875 157.78 5.84375C158.405 5.15625 159.155 4.8125 160.03 4.8125C162.092 4.8125 164.03 5.375 165.842 6.5C167.655 7.625 169.405 9.125 171.092 11C172.78 12.8125 174.374 14.8438 175.874 17.0938C177.436 19.3438 178.967 21.5938 180.467 23.8438C181.967 26.0312 183.436 28.125 184.874 30.125C186.311 32.0625 187.749 33.625 189.186 34.8125C190.749 34.125 191.967 32.875 192.842 31.0625C193.717 29.1875 194.436 27.0625 194.999 24.6875C195.561 22.25 196.061 19.75 196.499 17.1875C196.999 14.5625 197.655 12.1562 198.467 9.96875C199.28 7.78125 200.342 6 201.655 4.625C203.03 3.1875 204.905 2.46875 207.28 2.46875C210.092 2.46875 212.624 3.5625 214.874 5.75C217.186 7.9375 219.249 10.7188 221.061 14.0938C222.874 17.4688 224.405 21.2188 225.655 25.3438C226.967 29.4688 228.061 33.4375 228.936 37.25C229.811 41.0625 230.467 44.5 230.905 47.5625C231.342 50.625 231.561 52.8125 231.561 54.125C231.561 54.6875 231.53 55.3125 231.467 56C231.405 56.625 231.249 57.2188 230.999 57.7812C230.749 58.2812 230.342 58.6875 229.78 59C229.217 59.25 228.405 59.2188 227.342 58.9062C227.03 58.8438 226.655 58.6875 226.217 58.4375C225.842 58.125 225.436 57.75 224.999 57.3125C224.561 56.875 224.186 56.4688 223.874 56.0938C223.561 55.6562 223.405 55.2812 223.405 54.9688C222.842 51.9062 222.217 48.5 221.53 44.75C220.842 41 219.967 37.2188 218.905 33.4062C217.905 29.5312 216.624 25.7812 215.061 22.1562C213.499 18.5312 211.561 15.4062 209.249 12.7812C207.436 13.7812 205.999 15.3125 204.936 17.375C203.936 19.375 203.092 21.5938 202.405 24.0312C201.717 26.4062 201.092 28.8438 200.53 31.3438C199.967 33.8438 199.217 36.125 198.28 38.1875C197.342 40.1875 196.155 41.8438 194.717 43.1562C193.28 44.4688 191.342 45.125 188.905 45.125C187.217 45.125 185.561 44.5938 183.936 43.5312C182.374 42.4062 180.842 40.9688 179.342 39.2188C177.842 37.4062 176.374 35.4375 174.936 33.3125C173.561 31.125 172.186 29 170.811 26.9375C169.499 24.8125 168.186 22.8438 166.874 21.0312C165.624 19.2188 164.342 17.7812 163.03 16.7188C162.53 18.6562 162.124 20.375 161.811 21.875C161.561 23.3125 161.342 24.7188 161.155 26.0938C161.03 27.4688 160.936 28.875 160.874 30.3125C160.874 31.75 160.874 33.3438 160.874 35.0938C160.874 37.7188 161.092 40.3438 161.53 42.9688C161.967 45.5312 162.436 48.0938 162.936 50.6562C163.436 53.2188 163.905 55.8125 164.342 58.4375C164.842 61 165.092 63.5938 165.092 66.2188V66.9688C164.967 67.1562 164.717 67.4688 164.342 67.9062C163.967 68.2812 163.561 68.6875 163.124 69.125C162.749 69.5625 162.342 69.9688 161.905 70.3438C161.467 70.6562 161.155 70.875 160.967 71C160.905 71.0625 160.78 71.0938 160.592 71.0938C160.405 71.1562 160.217 71.1875 160.03 71.1875C159.905 71.1875 159.749 71.1562 159.561 71.0938C159.374 71.0312 159.217 71 159.092 71C158.655 67.375 158.186 63.9375 157.686 60.6875C157.186 57.4375 156.717 54.2188 156.28 51.0312C155.905 47.8438 155.561 44.625 155.249 41.375C154.999 38.125 154.874 34.625 154.874 30.875ZM230.946 51.9688C230.946 48.0938 231.853 44.5 233.665 41.1875C235.478 37.8125 237.853 34.9375 240.79 32.5625C243.79 30.125 247.134 28.2188 250.821 26.8438C254.571 25.4688 258.353 24.7812 262.165 24.7812C264.29 24.7812 266.165 25.4688 267.79 26.8438C269.478 28.2188 270.884 29.9062 272.009 31.9062C273.134 33.8438 273.978 35.9062 274.54 38.0938C275.165 40.2812 275.478 42.1875 275.478 43.8125C275.478 47.3125 274.634 50.7188 272.946 54.0312C271.259 57.2812 269.071 60.1875 266.384 62.75C263.696 65.25 260.665 67.2812 257.29 68.8438C253.915 70.4062 250.54 71.1875 247.165 71.1875C244.165 71.1875 241.634 70.6875 239.571 69.6875C237.509 68.625 235.853 67.25 234.603 65.5625C233.353 63.8125 232.415 61.7812 231.79 59.4688C231.228 57.0938 230.946 54.5938 230.946 51.9688ZM238.915 52.9062C238.915 54.5312 239.04 55.9688 239.29 57.2188C239.603 58.4062 240.103 59.4375 240.79 60.3125C241.54 61.1875 242.509 61.875 243.696 62.375C244.884 62.8125 246.353 63.0312 248.103 63.0312C250.415 63.0312 252.728 62.4062 255.04 61.1562C257.353 59.8438 259.415 58.2188 261.228 56.2812C263.103 54.2812 264.603 52.0938 265.728 49.7188C266.853 47.3438 267.415 45.0312 267.415 42.7812C267.415 41.7812 267.321 40.6875 267.134 39.5C266.946 38.3125 266.634 37.2188 266.196 36.2188C265.759 35.2188 265.134 34.375 264.321 33.6875C263.509 33 262.478 32.6562 261.228 32.6562C260.103 32.6562 258.759 33.0312 257.196 33.7812C255.696 34.5312 254.103 35.5 252.415 36.6875C250.79 37.875 249.165 39.2188 247.54 40.7188C245.978 42.2188 244.54 43.7188 243.228 45.2188C241.915 46.7188 240.853 48.1562 240.04 49.5312C239.29 50.9062 238.915 52.0312 238.915 52.9062Z" fill="white"/>
<path d="M283.5 48L295.191 65.25H271.809L283.5 48Z" fill="#FF09E6"/>
<path d="M12.4999 48L24.1912 65.25H0.808594L12.4999 48Z" fill="#FF09E6"/>
</g>
<defs>
<clipPath id="clip0_302_19">
<rect width="296" height="72" fill="white"/>
</clipPath>
</defs>
</svg>
